%TF.GenerationSoftware,KiCad,Pcbnew,(6.0.0-0)*%
%TF.CreationDate,2022-02-01T16:18:18+01:00*%
%TF.ProjectId,USBC cable,55534243-2063-4616-926c-652e6b696361,rev?*%
%TF.SameCoordinates,Original*%
%TF.FileFunction,Copper,L1,Top*%
%TF.FilePolarity,Positive*%
%FSLAX46Y46*%
G04 Gerber Fmt 4.6, Leading zero omitted, Abs format (unit mm)*
G04 Created by KiCad (PCBNEW (6.0.0-0)) date 2022-02-01 16:18:18*
%MOMM*%
%LPD*%
G01*
G04 APERTURE LIST*
%TA.AperFunction,SMDPad,CuDef*%
%ADD10R,4.470400X7.327900*%
%TD*%
%TA.AperFunction,ComponentPad*%
%ADD11O,1.000000X1.800000*%
%TD*%
%TA.AperFunction,SMDPad,CuDef*%
%ADD12R,0.800000X1.500000*%
%TD*%
%TA.AperFunction,SMDPad,CuDef*%
%ADD13R,0.300000X0.900000*%
%TD*%
%TA.AperFunction,ViaPad*%
%ADD14C,0.800000*%
%TD*%
%TA.AperFunction,Conductor*%
%ADD15C,1.400000*%
%TD*%
%TA.AperFunction,Conductor*%
%ADD16C,0.300000*%
%TD*%
%TA.AperFunction,Conductor*%
%ADD17C,1.200000*%
%TD*%
G04 APERTURE END LIST*
D10*
%TO.P,P2,1,Pad*%
%TO.N,GND*%
X134340600Y-87863750D03*
%TD*%
%TO.P,P1,1,Pad*%
%TO.N,+5V*%
X129489200Y-87838350D03*
%TD*%
D11*
%TO.P,U1,25,SHELL*%
%TO.N,GND*%
X127647200Y-95667390D03*
D12*
X128347200Y-96717428D03*
D11*
%TO.P,U1,26,SHELL*%
X136197212Y-95667390D03*
D12*
X135497212Y-96717428D03*
D13*
%TO.P,U1,A1,GND*%
X134672193Y-95517377D03*
%TO.P,U1,A2,SSTXP1*%
%TO.N,unconnected-(U1-PadA2)*%
X134172193Y-95517377D03*
%TO.P,U1,A3,SSTXN1*%
%TO.N,unconnected-(U1-PadA3)*%
X133672193Y-95517377D03*
%TO.P,U1,A4,VBUS*%
%TO.N,+5V*%
X133172193Y-95517377D03*
%TO.P,U1,A5,CC1*%
%TO.N,unconnected-(U1-PadA5)*%
X130672193Y-95517377D03*
%TO.P,U1,A6,DP1*%
%TO.N,DATA*%
X130172193Y-95517377D03*
%TO.P,U1,A7,DN1*%
X129672193Y-95517377D03*
%TO.P,U1,A12,GND*%
%TO.N,GND*%
X129172193Y-95517377D03*
%TO.P,U1,B9,VBUS*%
%TO.N,+5V*%
X131172193Y-95517377D03*
%TO.P,U1,B10,SSRXN1*%
%TO.N,unconnected-(U1-PadB10)*%
X131672193Y-95517377D03*
%TO.P,U1,B11,SSRXP1*%
%TO.N,unconnected-(U1-PadB11)*%
X132172193Y-95517377D03*
%TO.P,U1,B12,GND*%
%TO.N,GND*%
X132672193Y-95517377D03*
%TD*%
D14*
%TO.N,+5V*%
X128244600Y-92202000D03*
X129590800Y-96926400D03*
%TO.N,DATA*%
X130534700Y-94467875D03*
%TD*%
D15*
%TO.N,+5V*%
X128244600Y-92202000D02*
X128320800Y-92125800D01*
X128320800Y-92125800D02*
X128320800Y-89006750D01*
X128320800Y-89006750D02*
X129489200Y-87838350D01*
%TO.N,GND*%
X134222202Y-93168364D02*
X134340600Y-93049966D01*
X134340600Y-93049966D02*
X134340600Y-87863750D01*
X128622682Y-94967866D02*
X128622682Y-95517377D01*
X128303284Y-94648468D02*
X128622682Y-94967866D01*
X128142080Y-94648468D02*
X128303284Y-94648468D01*
X135221704Y-95580200D02*
X135221704Y-94167866D01*
X135221704Y-94167866D02*
X134222202Y-93168364D01*
X134222202Y-93168364D02*
X129622184Y-93168364D01*
X129622184Y-93168364D02*
X128142080Y-94648468D01*
X128142080Y-94648468D02*
X128142080Y-96717428D01*
D16*
%TO.N,DATA*%
X130172193Y-95517377D02*
X130172193Y-94668607D01*
X130172193Y-94668607D02*
X130175000Y-94665800D01*
X130175000Y-94665800D02*
X130372925Y-94467875D01*
X130372925Y-94467875D02*
X130534700Y-94467875D01*
%TO.N,+5V*%
X133172193Y-95517377D02*
X133172193Y-96316399D01*
X131172193Y-95517377D02*
X131172193Y-96894407D01*
X133172193Y-96316399D02*
X133172200Y-96316406D01*
D17*
X133172200Y-96977200D02*
X131254986Y-96977200D01*
X131089400Y-96977200D02*
X129641600Y-96977200D01*
D16*
X133172200Y-96316406D02*
X133172200Y-96977200D01*
X131172193Y-96894407D02*
X131089400Y-96977200D01*
X131254986Y-96977200D02*
X131172193Y-96894407D01*
X129641600Y-96977200D02*
X129590800Y-96926400D01*
D15*
%TO.N,GND*%
X135497212Y-95855708D02*
X135497212Y-96717428D01*
X135221704Y-95580200D02*
X135497212Y-95855708D01*
X135221704Y-95667390D02*
X135221704Y-95580200D01*
D16*
%TO.N,DATA*%
X130172193Y-95517377D02*
X129672193Y-95517377D01*
%TD*%
%TA.AperFunction,Conductor*%
%TO.N,GND*%
G36*
X135339042Y-95387379D02*
G01*
X135353433Y-95398152D01*
X135376058Y-95417757D01*
X135383741Y-95419428D01*
X135625212Y-95419428D01*
X135693333Y-95439430D01*
X135739826Y-95493086D01*
X135751212Y-95545428D01*
X135751212Y-96445313D01*
X135755687Y-96460552D01*
X135757077Y-96461757D01*
X135764760Y-96463428D01*
X136145000Y-96463428D01*
X136213121Y-96483430D01*
X136259614Y-96537086D01*
X136271000Y-96589428D01*
X136271000Y-96845428D01*
X136250998Y-96913549D01*
X136197342Y-96960042D01*
X136145000Y-96971428D01*
X134607327Y-96971428D01*
X134592088Y-96975903D01*
X134590883Y-96977293D01*
X134589212Y-96984976D01*
X134589213Y-97308400D01*
X134569211Y-97376520D01*
X134515556Y-97423013D01*
X134463213Y-97434400D01*
X134364012Y-97434400D01*
X134295891Y-97414398D01*
X134249398Y-97360742D01*
X134239294Y-97290468D01*
X134244985Y-97267065D01*
X134252093Y-97246596D01*
X134254061Y-97240929D01*
X134284413Y-97031596D01*
X134274633Y-96820301D01*
X134229107Y-96631397D01*
X134232592Y-96560487D01*
X134273861Y-96502717D01*
X134339812Y-96476430D01*
X134351600Y-96475877D01*
X134370327Y-96475877D01*
X134410913Y-96471468D01*
X134438126Y-96471468D01*
X134470710Y-96475008D01*
X134477521Y-96475377D01*
X134504078Y-96475377D01*
X134519317Y-96470902D01*
X134541582Y-96445207D01*
X134542111Y-96445665D01*
X134548875Y-96433277D01*
X134569032Y-96418170D01*
X134568898Y-96417992D01*
X134624628Y-96376225D01*
X134691135Y-96351377D01*
X134760517Y-96366430D01*
X134810747Y-96416605D01*
X134821089Y-96441553D01*
X134826668Y-96460552D01*
X134828058Y-96461757D01*
X134835741Y-96463428D01*
X135225097Y-96463428D01*
X135240336Y-96458953D01*
X135241541Y-96457563D01*
X135243212Y-96449880D01*
X135243212Y-95685492D01*
X135238737Y-95670253D01*
X135237347Y-95669048D01*
X135229664Y-95667377D01*
X134956693Y-95667377D01*
X134888572Y-95647375D01*
X134842079Y-95593719D01*
X134830693Y-95541377D01*
X134830693Y-95493377D01*
X134850695Y-95425256D01*
X134904351Y-95378763D01*
X134956693Y-95367377D01*
X135270921Y-95367377D01*
X135339042Y-95387379D01*
G37*
%TD.AperFunction*%
%TA.AperFunction,Conductor*%
G36*
X128952753Y-95387379D02*
G01*
X128999246Y-95441035D01*
X129010383Y-95485465D01*
X129013403Y-95533465D01*
X128997718Y-95602707D01*
X128947088Y-95652478D01*
X128887652Y-95667377D01*
X128619315Y-95667377D01*
X128604076Y-95671852D01*
X128602871Y-95673242D01*
X128601200Y-95680925D01*
X128601200Y-96572820D01*
X128594228Y-96614153D01*
X128559739Y-96713471D01*
X128544250Y-96820301D01*
X128537985Y-96863508D01*
X128508415Y-96928054D01*
X128448644Y-96966366D01*
X128413289Y-96971428D01*
X127684800Y-96971428D01*
X127616679Y-96951426D01*
X127570186Y-96897770D01*
X127558800Y-96845428D01*
X127558800Y-96589428D01*
X127578802Y-96521307D01*
X127632458Y-96474814D01*
X127684800Y-96463428D01*
X128075085Y-96463428D01*
X128090324Y-96458953D01*
X128091529Y-96457563D01*
X128093200Y-96449880D01*
X128093200Y-95545428D01*
X128113202Y-95477307D01*
X128166858Y-95430814D01*
X128219200Y-95419428D01*
X128456078Y-95419428D01*
X128471318Y-95414953D01*
X128474861Y-95410864D01*
X128534588Y-95372481D01*
X128570085Y-95367377D01*
X128884632Y-95367377D01*
X128952753Y-95387379D01*
G37*
%TD.AperFunction*%
%TA.AperFunction,Conductor*%
G36*
X134536721Y-87629752D02*
G01*
X134583214Y-87683408D01*
X134594600Y-87735750D01*
X134594600Y-92017584D01*
X134599075Y-92032823D01*
X134600465Y-92034028D01*
X134608148Y-92035699D01*
X136145000Y-92035699D01*
X136213121Y-92055701D01*
X136259614Y-92109357D01*
X136271000Y-92161699D01*
X136271000Y-95795390D01*
X136250998Y-95863511D01*
X136197342Y-95910004D01*
X136145000Y-95921390D01*
X136069212Y-95921390D01*
X136001091Y-95901388D01*
X135954598Y-95847732D01*
X135943212Y-95795390D01*
X135943212Y-94309466D01*
X135939239Y-94295935D01*
X135931444Y-94294815D01*
X135823691Y-94326528D01*
X135812323Y-94331121D01*
X135648058Y-94416997D01*
X135637797Y-94423711D01*
X135493339Y-94539858D01*
X135484580Y-94548436D01*
X135364312Y-94691766D01*
X135305202Y-94731093D01*
X135234215Y-94732219D01*
X135185552Y-94703865D01*
X135185097Y-94704473D01*
X135179864Y-94700551D01*
X135178695Y-94699870D01*
X135177917Y-94699092D01*
X135075842Y-94622591D01*
X135060247Y-94614053D01*
X134939799Y-94568899D01*
X134924544Y-94565272D01*
X134873679Y-94559746D01*
X134866865Y-94559377D01*
X134840308Y-94559377D01*
X134825069Y-94563852D01*
X134823864Y-94565242D01*
X134820188Y-94582142D01*
X134786163Y-94644455D01*
X134723851Y-94678480D01*
X134653036Y-94673416D01*
X134621503Y-94656187D01*
X134576082Y-94622146D01*
X134576081Y-94622146D01*
X134568899Y-94616763D01*
X134569115Y-94616474D01*
X134523054Y-94570312D01*
X134520840Y-94564959D01*
X134516328Y-94561049D01*
X134508645Y-94559378D01*
X134477523Y-94559378D01*
X134470705Y-94559747D01*
X134438126Y-94563286D01*
X134410913Y-94563286D01*
X134370327Y-94558877D01*
X133974059Y-94558877D01*
X133970664Y-94559246D01*
X133970660Y-94559246D01*
X133944662Y-94562070D01*
X133935799Y-94563033D01*
X133908587Y-94563033D01*
X133899724Y-94562070D01*
X133873726Y-94559246D01*
X133873722Y-94559246D01*
X133870327Y-94558877D01*
X133474059Y-94558877D01*
X133470664Y-94559246D01*
X133470660Y-94559246D01*
X133444662Y-94562070D01*
X133435799Y-94563033D01*
X133408587Y-94563033D01*
X133399724Y-94562070D01*
X133373726Y-94559246D01*
X133373722Y-94559246D01*
X133370327Y-94558877D01*
X132974059Y-94558877D01*
X132933473Y-94563286D01*
X132906260Y-94563286D01*
X132873676Y-94559746D01*
X132866865Y-94559377D01*
X132840308Y-94559377D01*
X132825069Y-94563852D01*
X132802804Y-94589547D01*
X132802275Y-94589089D01*
X132795511Y-94601477D01*
X132775353Y-94616585D01*
X132775487Y-94616763D01*
X132758094Y-94629798D01*
X132747757Y-94637545D01*
X132681250Y-94662392D01*
X132611868Y-94647338D01*
X132596629Y-94637545D01*
X132576082Y-94622146D01*
X132568899Y-94616763D01*
X132569115Y-94616474D01*
X132523054Y-94570312D01*
X132520840Y-94564959D01*
X132516328Y-94561049D01*
X132508645Y-94559378D01*
X132477523Y-94559378D01*
X132470705Y-94559747D01*
X132438126Y-94563286D01*
X132410913Y-94563286D01*
X132370327Y-94558877D01*
X131974059Y-94558877D01*
X131970664Y-94559246D01*
X131970660Y-94559246D01*
X131944662Y-94562070D01*
X131935799Y-94563033D01*
X131908587Y-94563033D01*
X131899724Y-94562070D01*
X131873726Y-94559246D01*
X131873722Y-94559246D01*
X131870327Y-94558877D01*
X131571220Y-94558877D01*
X131503099Y-94538875D01*
X131456606Y-94485219D01*
X131445910Y-94446048D01*
X131428932Y-94284509D01*
X131428931Y-94284506D01*
X131428242Y-94277947D01*
X131369227Y-94096319D01*
X131273740Y-93930931D01*
X131145953Y-93789009D01*
X130991452Y-93676757D01*
X130985424Y-93674073D01*
X130985422Y-93674072D01*
X130823019Y-93601766D01*
X130823018Y-93601766D01*
X130816988Y-93599081D01*
X130723588Y-93579228D01*
X130636644Y-93560747D01*
X130636639Y-93560747D01*
X130630187Y-93559375D01*
X130439213Y-93559375D01*
X130432761Y-93560747D01*
X130432756Y-93560747D01*
X130345813Y-93579228D01*
X130252412Y-93599081D01*
X130246382Y-93601766D01*
X130246381Y-93601766D01*
X130083978Y-93674072D01*
X130083976Y-93674073D01*
X130077948Y-93676757D01*
X129923447Y-93789009D01*
X129795660Y-93930931D01*
X129700173Y-94096319D01*
X129698133Y-94102599D01*
X129698132Y-94102600D01*
X129650824Y-94248198D01*
X129635605Y-94278065D01*
X129635221Y-94278474D01*
X129631404Y-94285417D01*
X129631402Y-94285420D01*
X129624890Y-94297265D01*
X129614036Y-94313789D01*
X129606211Y-94323878D01*
X129600889Y-94330739D01*
X129597742Y-94338011D01*
X129597741Y-94338013D01*
X129582539Y-94373142D01*
X129577317Y-94383802D01*
X129555069Y-94424270D01*
X129549734Y-94445048D01*
X129543335Y-94463738D01*
X129534813Y-94483431D01*
X129534813Y-94483432D01*
X129532767Y-94482546D01*
X129500682Y-94532792D01*
X129436187Y-94562473D01*
X129404285Y-94563071D01*
X129373679Y-94559746D01*
X129366865Y-94559377D01*
X129340308Y-94559377D01*
X129325069Y-94563852D01*
X129302804Y-94589547D01*
X129302275Y-94589089D01*
X129295511Y-94601477D01*
X129275354Y-94616584D01*
X129275488Y-94616762D01*
X129222884Y-94656187D01*
X129222634Y-94656374D01*
X129156128Y-94681222D01*
X129086745Y-94666169D01*
X129036515Y-94615995D01*
X129026173Y-94591047D01*
X129017718Y-94562254D01*
X129016328Y-94561049D01*
X129008645Y-94559378D01*
X128977524Y-94559378D01*
X128970703Y-94559748D01*
X128919841Y-94565272D01*
X128904589Y-94568898D01*
X128784139Y-94614053D01*
X128768544Y-94622591D01*
X128666469Y-94699092D01*
X128664848Y-94700713D01*
X128662851Y-94701804D01*
X128659289Y-94704473D01*
X128658904Y-94703959D01*
X128602536Y-94734739D01*
X128531721Y-94729674D01*
X128478110Y-94691254D01*
X128369803Y-94558458D01*
X128361159Y-94549753D01*
X128218344Y-94431606D01*
X128208173Y-94424746D01*
X128045124Y-94336586D01*
X128033819Y-94331834D01*
X127918508Y-94296140D01*
X127904405Y-94295934D01*
X127901200Y-94302689D01*
X127901200Y-95795390D01*
X127881198Y-95863511D01*
X127827542Y-95910004D01*
X127775200Y-95921390D01*
X127684800Y-95921390D01*
X127616679Y-95901388D01*
X127570186Y-95847732D01*
X127558800Y-95795390D01*
X127558800Y-93415708D01*
X127578802Y-93347587D01*
X127632458Y-93301094D01*
X127702732Y-93290990D01*
X127743760Y-93304354D01*
X127774394Y-93320574D01*
X127979908Y-93386163D01*
X127985465Y-93386895D01*
X127985467Y-93386895D01*
X128086849Y-93400242D01*
X128193789Y-93414320D01*
X128199388Y-93414056D01*
X128199390Y-93414056D01*
X128286329Y-93409956D01*
X128409275Y-93404158D01*
X128619557Y-93355998D01*
X128624718Y-93353797D01*
X128624723Y-93353795D01*
X128812819Y-93273564D01*
X128812820Y-93273564D01*
X128817986Y-93271360D01*
X128822673Y-93268281D01*
X128822679Y-93268278D01*
X128926511Y-93200073D01*
X128998292Y-93152922D01*
X129001730Y-93149859D01*
X129001735Y-93149855D01*
X129037872Y-93117657D01*
X129039229Y-93116448D01*
X129113048Y-93042629D01*
X129125439Y-93031762D01*
X129137660Y-93022385D01*
X129137664Y-93022381D01*
X129142111Y-93018969D01*
X129194702Y-92961172D01*
X129198801Y-92956876D01*
X129214042Y-92941635D01*
X129230060Y-92922478D01*
X129233531Y-92918499D01*
X129283521Y-92863561D01*
X129283522Y-92863560D01*
X129287297Y-92859411D01*
X129290280Y-92854656D01*
X129296271Y-92845107D01*
X129306341Y-92831247D01*
X129307567Y-92829781D01*
X129317170Y-92818295D01*
X129356767Y-92748875D01*
X129359458Y-92744378D01*
X129401934Y-92676665D01*
X129408231Y-92661001D01*
X129415690Y-92645571D01*
X129424053Y-92630909D01*
X129425924Y-92625626D01*
X129425927Y-92625619D01*
X129450730Y-92555576D01*
X129452585Y-92550668D01*
X129482397Y-92476507D01*
X129485822Y-92459970D01*
X129490427Y-92443474D01*
X129496064Y-92427556D01*
X129508974Y-92348717D01*
X129509936Y-92343526D01*
X129525207Y-92269786D01*
X129526144Y-92265263D01*
X129527668Y-92238834D01*
X129529115Y-92225729D01*
X129530018Y-92220211D01*
X129530926Y-92214666D01*
X129529734Y-92138779D01*
X129548663Y-92070352D01*
X129601582Y-92023023D01*
X129655718Y-92010800D01*
X131772534Y-92010800D01*
X131834716Y-92004045D01*
X131842116Y-92001271D01*
X131849800Y-91999444D01*
X131850421Y-92002057D01*
X131908295Y-91997812D01*
X131925965Y-92002999D01*
X131987795Y-92026178D01*
X132003049Y-92029805D01*
X132053914Y-92035331D01*
X132060728Y-92035700D01*
X134068485Y-92035700D01*
X134083724Y-92031225D01*
X134084929Y-92029835D01*
X134086600Y-92022152D01*
X134086600Y-87735750D01*
X134106602Y-87667629D01*
X134160258Y-87621136D01*
X134212600Y-87609750D01*
X134468600Y-87609750D01*
X134536721Y-87629752D01*
G37*
%TD.AperFunction*%
%TD*%
M02*
