%TF.GenerationSoftware,KiCad,Pcbnew,(6.0.0-0)*%
%TF.CreationDate,2022-02-01T16:18:18+01:00*%
%TF.ProjectId,USBC cable,55534243-2063-4616-926c-652e6b696361,rev?*%
%TF.SameCoordinates,Original*%
%TF.FileFunction,Legend,Bot*%
%TF.FilePolarity,Positive*%
%FSLAX46Y46*%
G04 Gerber Fmt 4.6, Leading zero omitted, Abs format (unit mm)*
G04 Created by KiCad (PCBNEW (6.0.0-0)) date 2022-02-01 16:18:18*
%MOMM*%
%LPD*%
G01*
G04 APERTURE LIST*
%ADD10C,0.150000*%
G04 APERTURE END LIST*
D10*
X131335495Y-92232219D02*
X131335495Y-93232219D01*
X131573590Y-93232219D01*
X131716447Y-93184600D01*
X131811685Y-93089361D01*
X131859304Y-92994123D01*
X131906923Y-92803647D01*
X131906923Y-92660790D01*
X131859304Y-92470314D01*
X131811685Y-92375076D01*
X131716447Y-92279838D01*
X131573590Y-92232219D01*
X131335495Y-92232219D01*
X130070466Y-97725533D02*
X130070466Y-97158866D01*
X130103800Y-97092200D01*
X130137133Y-97058866D01*
X130203800Y-97025533D01*
X130337133Y-97025533D01*
X130403800Y-97058866D01*
X130437133Y-97092200D01*
X130470466Y-97158866D01*
X130470466Y-97725533D01*
X130770466Y-97058866D02*
X130870466Y-97025533D01*
X131037133Y-97025533D01*
X131103800Y-97058866D01*
X131137133Y-97092200D01*
X131170466Y-97158866D01*
X131170466Y-97225533D01*
X131137133Y-97292200D01*
X131103800Y-97325533D01*
X131037133Y-97358866D01*
X130903800Y-97392200D01*
X130837133Y-97425533D01*
X130803800Y-97458866D01*
X130770466Y-97525533D01*
X130770466Y-97592200D01*
X130803800Y-97658866D01*
X130837133Y-97692200D01*
X130903800Y-97725533D01*
X131070466Y-97725533D01*
X131170466Y-97692200D01*
X131703800Y-97392200D02*
X131803800Y-97358866D01*
X131837133Y-97325533D01*
X131870466Y-97258866D01*
X131870466Y-97158866D01*
X131837133Y-97092200D01*
X131803800Y-97058866D01*
X131737133Y-97025533D01*
X131470466Y-97025533D01*
X131470466Y-97725533D01*
X131703800Y-97725533D01*
X131770466Y-97692200D01*
X131803800Y-97658866D01*
X131837133Y-97592200D01*
X131837133Y-97525533D01*
X131803800Y-97458866D01*
X131770466Y-97425533D01*
X131703800Y-97392200D01*
X131470466Y-97392200D01*
X132170466Y-97292200D02*
X132703800Y-97292200D01*
X133437133Y-97092200D02*
X133403800Y-97058866D01*
X133303800Y-97025533D01*
X133237133Y-97025533D01*
X133137133Y-97058866D01*
X133070466Y-97125533D01*
X133037133Y-97192200D01*
X133003800Y-97325533D01*
X133003800Y-97425533D01*
X133037133Y-97558866D01*
X133070466Y-97625533D01*
X133137133Y-97692200D01*
X133237133Y-97725533D01*
X133303800Y-97725533D01*
X133403800Y-97692200D01*
X133437133Y-97658866D01*
X129220466Y-96365200D02*
X129487133Y-96365200D01*
X129320466Y-96598533D02*
X129320466Y-95998533D01*
X129353800Y-95931866D01*
X129420466Y-95898533D01*
X129487133Y-95898533D01*
X129820466Y-95898533D02*
X129753800Y-95931866D01*
X129720466Y-95965200D01*
X129687133Y-96031866D01*
X129687133Y-96231866D01*
X129720466Y-96298533D01*
X129753800Y-96331866D01*
X129820466Y-96365200D01*
X129920466Y-96365200D01*
X129987133Y-96331866D01*
X130020466Y-96298533D01*
X130053800Y-96231866D01*
X130053800Y-96031866D01*
X130020466Y-95965200D01*
X129987133Y-95931866D01*
X129920466Y-95898533D01*
X129820466Y-95898533D01*
X131220466Y-95898533D02*
X130887133Y-95898533D01*
X130887133Y-96598533D01*
X131453800Y-96265200D02*
X131687133Y-96265200D01*
X131787133Y-95898533D02*
X131453800Y-95898533D01*
X131453800Y-96598533D01*
X131787133Y-96598533D01*
X132087133Y-95898533D02*
X132087133Y-96598533D01*
X132253800Y-96598533D01*
X132353800Y-96565200D01*
X132420466Y-96498533D01*
X132453800Y-96431866D01*
X132487133Y-96298533D01*
X132487133Y-96198533D01*
X132453800Y-96065200D01*
X132420466Y-95998533D01*
X132353800Y-95931866D01*
X132253800Y-95898533D01*
X132087133Y-95898533D01*
X133320466Y-95898533D02*
X133320466Y-96598533D01*
X133320466Y-96331866D02*
X133387133Y-96365200D01*
X133520466Y-96365200D01*
X133587133Y-96331866D01*
X133620466Y-96298533D01*
X133653800Y-96231866D01*
X133653800Y-96031866D01*
X133620466Y-95965200D01*
X133587133Y-95931866D01*
X133520466Y-95898533D01*
X133387133Y-95898533D01*
X133320466Y-95931866D01*
X133887133Y-96365200D02*
X134053800Y-95898533D01*
X134220466Y-96365200D02*
X134053800Y-95898533D01*
X133987133Y-95731866D01*
X133953800Y-95698533D01*
X133887133Y-95665200D01*
X129370466Y-95238200D02*
X129370466Y-94671533D01*
X129337133Y-94604866D01*
X129303800Y-94571533D01*
X129237133Y-94538200D01*
X129137133Y-94538200D01*
X129070466Y-94571533D01*
X129370466Y-94804866D02*
X129303800Y-94771533D01*
X129170466Y-94771533D01*
X129103800Y-94804866D01*
X129070466Y-94838200D01*
X129037133Y-94904866D01*
X129037133Y-95104866D01*
X129070466Y-95171533D01*
X129103800Y-95204866D01*
X129170466Y-95238200D01*
X129303800Y-95238200D01*
X129370466Y-95204866D01*
X129803800Y-94771533D02*
X129737133Y-94804866D01*
X129703800Y-94871533D01*
X129703800Y-95471533D01*
X130170466Y-94771533D02*
X130103800Y-94804866D01*
X130070466Y-94838200D01*
X130037133Y-94904866D01*
X130037133Y-95104866D01*
X130070466Y-95171533D01*
X130103800Y-95204866D01*
X130170466Y-95238200D01*
X130270466Y-95238200D01*
X130337133Y-95204866D01*
X130370466Y-95171533D01*
X130403800Y-95104866D01*
X130403800Y-94904866D01*
X130370466Y-94838200D01*
X130337133Y-94804866D01*
X130270466Y-94771533D01*
X130170466Y-94771533D01*
X130637133Y-95238200D02*
X130770466Y-94771533D01*
X130903800Y-95104866D01*
X131037133Y-94771533D01*
X131170466Y-95238200D01*
X131437133Y-94771533D02*
X131437133Y-95238200D01*
X131437133Y-95471533D02*
X131403800Y-95438200D01*
X131437133Y-95404866D01*
X131470466Y-95438200D01*
X131437133Y-95471533D01*
X131437133Y-95404866D01*
X131770466Y-95238200D02*
X131770466Y-94771533D01*
X131770466Y-95171533D02*
X131803800Y-95204866D01*
X131870466Y-95238200D01*
X131970466Y-95238200D01*
X132037133Y-95204866D01*
X132070466Y-95138200D01*
X132070466Y-94771533D01*
X132703800Y-95238200D02*
X132703800Y-94671533D01*
X132670466Y-94604866D01*
X132637133Y-94571533D01*
X132570466Y-94538200D01*
X132470466Y-94538200D01*
X132403800Y-94571533D01*
X132703800Y-94804866D02*
X132637133Y-94771533D01*
X132503800Y-94771533D01*
X132437133Y-94804866D01*
X132403800Y-94838200D01*
X132370466Y-94904866D01*
X132370466Y-95104866D01*
X132403800Y-95171533D01*
X132437133Y-95204866D01*
X132503800Y-95238200D01*
X132637133Y-95238200D01*
X132703800Y-95204866D01*
X133037133Y-94771533D02*
X133037133Y-95471533D01*
X133103800Y-95038200D02*
X133303800Y-94771533D01*
X133303800Y-95238200D02*
X133037133Y-94971533D01*
X133603800Y-94771533D02*
X133603800Y-95238200D01*
X133603800Y-95471533D02*
X133570466Y-95438200D01*
X133603800Y-95404866D01*
X133637133Y-95438200D01*
X133603800Y-95471533D01*
X133603800Y-95404866D01*
X133837133Y-95238200D02*
X134103800Y-95238200D01*
X133937133Y-95471533D02*
X133937133Y-94871533D01*
X133970466Y-94804866D01*
X134037133Y-94771533D01*
X134103800Y-94771533D01*
X134237133Y-95238200D02*
X134503800Y-95238200D01*
X134337133Y-95471533D02*
X134337133Y-94871533D01*
X134370466Y-94804866D01*
X134437133Y-94771533D01*
X134503800Y-94771533D01*
X134670466Y-95238200D02*
X134837133Y-94771533D01*
X135003800Y-95238200D02*
X134837133Y-94771533D01*
X134770466Y-94604866D01*
X134737133Y-94571533D01*
X134670466Y-94538200D01*
M02*
